<svg width="2736" height="2052" viewBox="0 0 2736 2052" fill="none" xmlns="http://www.w3.org/2000/svg">

<g id="Frame 99">
<path id="Block-1" d="M1822.5 1205.5H1832V1292.5V1397.5V1497.5V1591.5V1878H2584.5V1590.5H2571.5L2571.38 1497.5L2571.25 1402L2571.11 1292.5L2571 1206L2589.5 1205V1189V1179.5H2571V1089V987.5V885V781.5V676V577.5V492.5L2625.5 451.5V430L2633 424V415.5H2416L2433 400.5L2433.5 382.5L2441 375.5V367.5H2012L1993 399.5V406H1999.5V416H1832H1800L1795 427.5V439H1799.5V461.5H1832V577.5V676V781.5V885V975H1838V987.5V1001.5H1832V1089V1180.5H1822.5V1189V1205.5Z" fill="#0A51F5" fill-opacity="0.47"/>
<path id="Block-1-Floor-1" d="M1832 1601V1878H2584.5V1601H1832Z" fill="#FFD61F" fill-opacity="0.5"/>
<path id="Block-1-Floor-2" d="M1832 1498.5V1601H2584.5V1590.5H2571.5V1498.5H1832Z" fill="#FFD61F" fill-opacity="0.5"/>
<path id="Block-1-Floor-3" d="M1832 1396.5V1498.5H2571V1397.5L1832 1396.5Z" fill="#FFD61F" fill-opacity="0.5"/>
<path id="Block-1-Floor-4" d="M1832 1293.5V1396.5H2571V1293.5H1832Z" fill="#FFD61F" fill-opacity="0.5"/>
<path id="Block-1-Floor-5" d="M1832 1206V1293.5H2571.5V1205H2589.5V1189H1822.5V1206H1832Z" fill="#FFD61F" fill-opacity="0.5"/>
<path id="Block-1-Floor-6" d="M1822.5 1180.5V1189H2589.5V1179.5H2571V1088L1832 1088.5V1180.5H1822.5Z" fill="#FFD61F" fill-opacity="0.5"/>
<path id="Block-1-Floor-7" d="M1832 1001.5V1088.5L2571 1088V985H1838V1001.5H1832Z" fill="#FFD61F" fill-opacity="0.5"/>
<path id="Block-1-Floor-8" d="M1838 975V985H2571V883H1832V975H1838Z" fill="#FFD61F" fill-opacity="0.5"/>
<path id="Block-1-Floor-9" d="M1832 780V883H2571V780H1832Z" fill="#FFD61F" fill-opacity="0.5"/>
<path id="Block-1-Floor-10" d="M1832 677.5V780H2571V677.5H1832Z" fill="#FFD61F" fill-opacity="0.5"/>
<path id="Block-1-Floor-11" d="M1832 577.5V677.5H2571V577.5H1832Z" fill="#FFD61F" fill-opacity="0.5"/>
<path id="Block-1-Floor-12" d="M1832 461.5V577.5H2571V492.5L2625.5 451.5V430L2633 424V415.5H2416L2433 400.5L2433.5 382.5L2441 375.5V367.5H2012L1993 399.5V406H1999.5V416H1800L1795 427.5V439H1799.5V461.5H1832Z" fill="#FFD61F" fill-opacity="0.5"/>
</g>
</svg>
