<svg xmlns="http://www.w3.org/2000/svg" xmlns:xlink="http://www.w3.org/1999/xlink" xmlns:inkscape="http://www.inkscape.org/namespaces/inkscape" version="1.1" width="595.2756" height="841.8898" viewBox="0 0 595.2756 841.8898">
<g inkscape:groupmode="layer" inkscape:label="&#x0421;&#x043B;&#x043E;&#x0439; 1">
<path transform="matrix(1,0,0,-1,0,841.8898)" d="M88.8063 442.3561 88.0855 618.9701V628.7108L96.3187 632.2209C123.9701 644.0102 153.1695 652.4901 182.4542 659.0341 219.8013 667.3802 258.0046 672.7643 296.0459 676.6603L297.436 676.8026 298.8258 676.6603C336.867 672.7643 375.0704 667.3802 412.4174 659.0341 441.7024 652.4901 470.9015 644.0102 498.5529 632.2209L506.7862 628.7108V618.9701L505.6707 345.6351 505.6656 345.4617C504.7483 314.331 491.0729 286.5186 470.537 263.7119 457.2859 248.9953 441.1043 236.1212 424.6722 225.1862 408.4642 214.4004 390.9393 204.7844 373.0314 197.1754L302.684 167.2849 297.436 165.0572 292.161 167.2963 221.8402 197.1754C203.9323 204.7844 186.4074 214.4004 170.1995 225.1862 153.7673 236.1212 137.5858 248.9953 124.3346 263.7119 103.7988 286.5186 90.1233 314.331 89.206 345.4617L89.2009 345.6351Z" fill="#ffed00" fill-rule="evenodd"/>
<path transform="matrix(1,0,0,-1,0,841.8898)" stroke-width=".5669" stroke-linecap="butt" stroke-miterlimit="22.925585" stroke-linejoin="miter" fill="none" stroke="#010005" d="M88.8063 442.3561 88.0855 618.9701V628.7108L96.3187 632.2209C123.9701 644.0102 153.1695 652.4901 182.4542 659.0341 219.8013 667.3802 258.0046 672.7643 296.0459 676.6603L297.436 676.8026 298.8258 676.6603C336.867 672.7643 375.0704 667.3802 412.4174 659.0341 441.7024 652.4901 470.9015 644.0102 498.5529 632.2209L506.7862 628.7108V618.9701L505.6707 345.6351 505.6656 345.4617C504.7483 314.331 491.0729 286.5186 470.537 263.7119 457.2859 248.9953 441.1043 236.1212 424.6722 225.1862 408.4642 214.4004 390.9393 204.7844 373.0314 197.1754L302.684 167.2849 297.436 165.0572 292.161 167.2963 221.8402 197.1754C203.9323 204.7844 186.4074 214.4004 170.1995 225.1862 153.7673 236.1212 137.5858 248.9953 124.3346 263.7119 103.7988 286.5186 90.1233 314.331 89.206 345.4617L89.2009 345.6351Z"/>
<path transform="matrix(1,0,0,-1,0,841.8898)" d="M101.5866 619.7145V618.9982L102.255 455.2356C102.3299 455.9119 102.7794 456.5047 103.4518 456.7422 106.094 457.6762 108.6316 458.807 111.1022 460.0925L111.27 611.3798C158.7736 631.8822 221.5803 645.3635 297.436 652.8413 373.2914 645.3635 436.098 631.8822 483.6019 611.3798L483.7779 452.4449 491.917 446.1934C492.2532 445.9354 492.4786 445.5876 492.5758 445.2041L493.285 618.9982V619.7145C445.6261 640.0341 382.7866 654.6175 297.4584 663.1469L297.436 663.1492 297.4133 663.1469C212.0851 654.6175 149.2455 640.0341 101.5866 619.7145ZM102.2567 454.8189 102.7015 345.8642C103.447 320.5576 113.9309 295.4982 134.3407 272.8312 157.8254 246.7491 195.3167 223.1901 227.0931 209.6887L297.4136 179.8092 297.436 179.7999 297.4581 179.8092 367.7788 209.6887C399.5549 223.1901 437.0462 246.7491 460.531 272.8312 480.9407 295.4982 491.4247 320.5576 492.1705 345.8642L492.5721 444.3043C492.5628 444.2678 492.5523 444.2312 492.5407 444.1946 492.3028 443.4491 491.6551 442.9585 490.877 442.9341 488.5435 442.8612 486.1709 442.8938 483.7881 443.0268L483.8856 354.9478C485.2463 324.1032 472.6375 297.6443 450.553 275.01 437.2277 261.3526 420.4525 249.2833 401.2149 237.9288 370.0908 219.5589 331.5951 203.8144 297.436 192.1082 263.2765 203.8144 224.7809 219.5589 193.6568 237.9288 174.4191 249.2833 157.644 261.3526 144.3186 275.01 122.2342 297.6443 109.6254 324.1032 110.986 354.9478L111.0954 453.7276C108.7894 453.5527 106.4837 453.3803 104.1778 453.2165 103.2701 453.1521 102.4668 453.7638 102.2822 454.6602 102.2715 454.7132 102.263 454.7659 102.2567 454.8189Z" fill-rule="evenodd"/>
<path transform="matrix(1,0,0,-1,0,841.8898)" stroke-width=".5669" stroke-linecap="butt" stroke-miterlimit="22.925585" stroke-linejoin="miter" fill="none" stroke="#1a1a18" d="M101.5866 619.7145V618.9982L102.255 455.2356C102.3299 455.9119 102.7794 456.5047 103.4518 456.7422 106.094 457.6762 108.6316 458.807 111.1022 460.0925L111.27 611.3798C158.7736 631.8822 221.5803 645.3635 297.436 652.8413 373.2914 645.3635 436.098 631.8822 483.6019 611.3798L483.7779 452.4449 491.917 446.1934C492.2532 445.9354 492.4786 445.5876 492.5758 445.2041L493.285 618.9982V619.7145C445.6261 640.0341 382.7866 654.6175 297.4584 663.1469L297.436 663.1492 297.4133 663.1469C212.0851 654.6175 149.2455 640.0341 101.5866 619.7145ZM102.2567 454.8189 102.7015 345.8642C103.447 320.5576 113.9309 295.4982 134.3407 272.8312 157.8254 246.7491 195.3167 223.1901 227.0931 209.6887L297.4136 179.8092 297.436 179.7999 297.4581 179.8092 367.7788 209.6887C399.5549 223.1901 437.0462 246.7491 460.531 272.8312 480.9407 295.4982 491.4247 320.5576 492.1705 345.8642L492.5721 444.3043C492.5628 444.2678 492.5523 444.2312 492.5407 444.1946 492.3028 443.4491 491.6551 442.9585 490.877 442.9341 488.5435 442.8612 486.1709 442.8938 483.7881 443.0268L483.8856 354.9478C485.2463 324.1032 472.6375 297.6443 450.553 275.01 437.2277 261.3526 420.4525 249.2833 401.2149 237.9288 370.0908 219.5589 331.5951 203.8144 297.436 192.1082 263.2765 203.8144 224.7809 219.5589 193.6568 237.9288 174.4191 249.2833 157.644 261.3526 144.3186 275.01 122.2342 297.6443 109.6254 324.1032 110.986 354.9478L111.0954 453.7276C108.7894 453.5527 106.4837 453.3803 104.1778 453.2165 103.2701 453.1521 102.4668 453.7638 102.2822 454.6602 102.2715 454.7132 102.263 454.7659 102.2567 454.8189Z"/>
<path transform="matrix(1,0,0,-1,0,841.8898)" d="M118.4746 606.7976C165.3282 626.0783 225.1284 639.1582 297.4133 646.2556V646.2598L297.436 646.2575 297.4584 646.2598V646.2556C369.7435 639.1582 429.5435 626.0783 476.3971 606.7976V465.6501L473.2858 467.5317 473.652 605.3026C418.4646 626.6529 359.5374 638.9303 297.436 643.3622 235.3343 638.9303 176.4071 626.6529 121.2197 605.3026L121.5859 467.5317 118.4746 465.6501Z" fill-rule="evenodd"/>
<path transform="matrix(1,0,0,-1,0,841.8898)" d="M126.112 340.0634C129.7967 323.4002 135.811 308.3763 149.6738 293.8022 157.2948 285.7904 166.8158 278.2837 177.6393 270.7622 197.1045 257.2356 221.6058 244.4876 250.6249 232.4684 265.1224 226.4641 280.7476 220.9161 297.436 215.2466 314.1241 220.9161 329.7492 226.4641 344.2467 232.4684 373.2659 244.4876 397.7671 257.2356 417.2323 270.7622 428.0562 278.2837 437.5772 285.7904 445.1978 293.8022 459.0607 308.3763 465.0749 323.4002 468.7597 340.0634H471.7534C466.1076 314.2089 454.2117 295.4387 432.7523 278.5615 393.4015 247.6128 346.2437 228.2737 297.4581 210.7973V210.7814L297.436 210.7894 297.4136 210.7814V210.7973C248.6279 228.2737 201.4702 247.6128 162.1193 278.5615 140.6599 295.4387 128.7641 314.2089 123.1183 340.0634Z" fill-rule="evenodd"/>
<path transform="matrix(1,0,0,-1,0,841.8898)" d="M453.2956 469.8765C453.8208 473.3524 453.4603 476.3415 448.2278 476.653 440.6409 477.1046 440.0396 477.3725 432.9411 481.1321 435.2323 477.9505 438.6563 475.2094 443.2643 472.9717 445.2919 473.0102 444.7009 470.0307 447.0701 469.5871 447.7269 469.4641 447.9942 469.6594 448.5906 469.6642 449.2335 469.6693 449.5238 469.3915 448.4871 468.7379 446.1605 467.2712 451.4624 466.7185 452.0066 466.7258 455.4751 466.6195 458.1743 465.8264 460.5165 464.7146 458.1218 465.0015 455.7271 465.2884 453.3324 465.575 450.0354 465.9701 451.1837 465.7317 453.4767 464.1021 462.0135 458.0337 468.9017 453.714 478.7357 448.6082 461.2136 454.0844 449.1454 462.3814 434.9684 474.7 429.1739 479.7425 423.8294 484.8199 413.3563 482.783 409.7565 482.1007 406.1205 481.6959 402.4264 481.65 396.237 481.5731 389.8843 482.5029 383.2648 484.8199 387.7174 481.2508 395.9649 477.8921 402.2938 477.248 402.2127 476.2562 399.0762 476.2066 398.9954 475.2147 401.4609 475.0767 420.6586 477.1729 412.9061 474.0412 409.6018 473.5675 406.3198 473.0094 403.2011 471.8449 406.042 469.5267 409.5281 469.7657 413.7262 470.3638 417.7638 463.3129 427.9224 457.6238 439.9055 453.3199 434.9826 456.0471 430.4004 459.0091 427.0731 462.8347 425.5858 464.5451 425.5243 468.7685 427.1581 466.7757 435.6096 456.4689 443.7094 454.6131 451.8774 450.8612 449.0374 452.7 446.1214 454.335 444.0095 456.431 443.2212 457.2128 441.4357 459.8566 442.0757 460.9083 442.7124 461.9546 445.517 458.589 446.2027 457.9563 456.9985 447.9911 476.6017 444.3052 490.8209 444.7497 485.8339 448.5801 480.8466 452.4106 475.8596 456.2408 463.752 465.5395 467.8594 469.7719 453.2956 469.8765ZM410.8816 467.7616C411.6708 467.6403 412.4435 467.6828 413.1791 468.0984 413.4866 466.4906 414.6741 465.044 415.872 463.5992 413.9765 464.8731 412.2434 466.2266 410.8816 467.7616ZM434.8936 451.3615C410.2801 458.8104 392.9709 473.1851 374.0281 488.6563 358.706 501.1699 348.7323 502.259 330.1824 493.1909 315.2049 485.869 296.2928 474.0951 279.0655 475.81 267.4979 476.9614 264.8752 482.8187 255.4146 486.8929 251.0858 488.757 246.183 489.8724 240.34 489.7097 236.9897 495.4008 221.3209 497.6436 211.318 485.4172 213.3023 483.2552 214.8596 484.4489 216.5159 485.3537 220.8728 487.7334 221.1506 482.9788 218.6563 481.6687 217.5551 481.0904 216.0224 480.8112 214.7692 480.8625 209.3593 481.0343 206.1414 485.7729 200.7108 484.9308 196.6073 484.2938 197.8277 479.2589 193.428 479.7003 191.5024 479.7003 189.5771 479.7003 187.6518 479.7003 191.1671 476.9691 199.2064 472.9873 200.3871 479.0095 201.0591 482.4377 202.7758 481.4169 203.1117 478.8292 203.5925 475.1226 200.7731 473.2336 198.3214 472.9717 193.8169 472.4906 187.6669 476.5037 185.1143 477.7807 175.2287 482.726 165.3673 489.2893 157.2409 488.7252 151.6419 488.3369 145.1064 485.5731 141.2133 481.3931 140.0882 480.1847 139.1 478.8626 138.2119 477.4575 141.6626 477.4575 143.8444 480.5062 146.8718 481.3622 147.1037 480.0824 145.9962 478.7799 143.7389 477.4575 144.5083 476.9887 144.7688 476.5198 144.0556 476.051 129.4098 472.5924 120.57 460.8692 104.0508 455.0284 114.2067 455.7495 125.9634 456.7674 136.4615 457.2714 143.3707 457.6031 149.6687 459.4076 155.2708 462.7086 157.1136 463.7942 159.1328 465.0883 161.1714 466.6946 164.103 469.0046 167.868 473.453 171.51 469.1038 172.3524 468.0975 172.2577 466.7905 170.6386 465.2495 166.4331 462.1436 163.1066 460.3774 158.9012 457.2714 170.0413 457.7749 181.3178 457.9537 192.4155 458.5774 207.8955 459.4473 210.8149 464.5001 223.9157 468.8966 218.0466 470.3734 212.4354 471.5184 208.226 475.2292 203.3464 479.5313 213.5914 475.0812 214.6997 474.7717 223.0367 472.4439 230.2211 473.2676 236.3357 477.0173 236.1385 473.7467 233.7911 472.2602 230.7487 471.3506 234.722 469.4119 238.1366 469.7362 240.7124 473.4581 242.149 469.9695 236.8375 469.3326 231.9647 467.5028 237.0844 457.2714 249.6163 467.6547 257.8181 467.7094 258.0032 469.9494 256.551 473.2004 253.2251 476.9002 251.4555 478.8689 252.4414 479.2042 254.3406 478.0375 263.571 472.3662 261.5304 459.9 274.612 460.2172 277.164 460.2793 281.1917 461.3984 285.5976 462.4169 293.3203 464.2024 302.2055 466.6093 306.3444 469.133 314.0512 473.8323 320.1693 480.299 330.5288 481.9433 335.5495 483.4386 340.5702 484.9339 345.5909 486.4292 350.7077 486.2985 342.8521 481.254 339.1892 480.7188 336.8517 481.4572 332.746 480.9297 325.2444 477.8206 314.1737 473.2328 311.5446 465.5823 296.8551 461.0764 311.0754 461.3085 319.0374 456.6127 333.3762 466.6771 339.2391 471.259 344.5843 472.6891 351.237 474.5594 356.3649 476.0011 353.7893 474.9471 355.909 473.3674 360.595 469.8743 366.4409 466.8718 372.1127 464.7671 378.7121 462.3721 379.0168 458.1765 387.7883 456.503 402.4664 453.7015 417.9518 451.758 434.8936 451.3615ZM167.5103 466.1022C162.9386 461.0477 157.2763 458.6885 151.1819 457.9004 156.403 460.5579 161.4532 463.1372 165.8163 467.5771 168.4945 470.302 169.5016 468.3042 167.5103 466.1022ZM154.7946 479.8185C156.924 472.4215 149.1423 468.3917 143.0705 465.6087 136.2847 462.4985 127.6189 460.3136 118.2368 458.5992 129.1564 462.4413 141.035 465.9253 148.0689 471.2196 150.897 473.3484 153.6369 475.7202 153.3311 479.4681 153.1148 482.1182 154.0885 482.2716 154.7946 479.8185ZM218.4075 478.0806C221.082 476.2239 225.1596 476.4662 230.4122 478.1665 232.1918 478.7422 231.0758 480.4676 229.3191 479.8803 225.8586 478.7232 222.6472 478.1401 218.4075 478.0806ZM181.878 465.9695C177.7898 461.7048 172.5049 460.3056 167.1837 458.9938 171.8249 461.3743 176.3235 464.0066 180.2392 467.6647 181.9936 469.3034 184.1136 468.3008 181.878 465.9695ZM268.7601 464C271.1758 461.6099 276.6881 461.6512 285.9681 464.652 291.7885 466.8866 297.4745 469.2112 302.601 471.9112 306.2248 473.8195 304.9792 474.8743 301.2429 473.4317 291.6539 469.73 278.4257 464.1837 268.7601 464ZM368.9983 473.2634C365.794 473.182 363.3659 476.6604 361.423 478.7286 359.7571 480.5022 358.6595 480.1697 360.0899 477.4768 361.9885 473.9023 364.8489 471.8889 369.9927 469.5415 374.7526 466.5583 380.3091 462.8744 385.4758 460.1965 389.471 458.1261 393.3283 457.2425 397.6724 456.1997 390.9217 459.7498 384.4956 462.4478 375.1021 469.7572 373.341 471.1277 371.1546 471.8262 368.9983 473.2634ZM391.5558 464.1888C394.8021 462.2998 398.124 460.6044 401.5845 459.2639 403.9914 458.3319 412.0903 456.0148 404.8418 459.8719 400.4796 462.1929 392.7087 465.5208 392.4947 465.5951 389.1022 466.7698 386.1828 467.3154 391.5558 464.1888" fill-rule="evenodd"/>
<path transform="matrix(1,0,0,-1,0,841.8898)" d="M337.5833 612.0315 338.165 585.6695 319.6355 586.1942V604.4068Z" fill-rule="evenodd"/>
<path transform="matrix(1,0,0,-1,0,841.8898)" d="M316.544 603.0598V585.7517L301.4118 577.508V595.0001Z" fill-rule="evenodd"/>
<path transform="matrix(1,0,0,-1,0,841.8898)" d="M330.0588 582.7706H337.6789L337.8348 502.363C335.1628 501.4066 332.5598 500.2546 330.0588 499.0493Z" fill-rule="evenodd"/>
<path transform="matrix(1,0,0,-1,0,841.8898)" d="M339.8275 580.631 341.8693 579.9883 341.7409 503.5932C341.3319 503.4832 340.924 503.3673 340.5175 503.2457Z" fill-rule="evenodd"/>
<path transform="matrix(1,0,0,-1,0,841.8898)" d="M327.1558 582.7706H319.6355L319.7795 493.8537C322.2343 495.1137 324.686 496.3819 327.1558 497.6186Z" fill-rule="evenodd"/>
<path transform="matrix(1,0,0,-1,0,841.8898)" d="M316.544 582.2184 311.7801 579.4849 311.7555 489.8364C313.361 490.6071 314.9552 491.3997 316.544 492.2031Z" fill-rule="evenodd"/>
<path transform="matrix(1,0,0,-1,0,841.8898)" d="M308.9778 578.325 301.4118 574.9169V559.2127L307.7484 556.9407 307.4009 520.0724 308.9778 522.3847Z" fill-rule="evenodd"/>
<path transform="matrix(1,0,0,-1,0,841.8898)" d="M295.2731 558.9465 306.7265 555.9551 307.2039 487.7337C306.3991 487.3782 305.5904 487.0304 304.7769 486.6917 301.9541 485.5164 298.9911 484.4109 295.9543 483.5146Z" fill-rule="evenodd"/>
<path transform="matrix(1,0,0,-1,0,841.8898)" d="M292.4515 558.9465 286.7017 555.9551 287.4254 481.6786C289.1081 481.8906 290.7867 482.2013 292.4515 482.5882Z" fill-rule="evenodd"/>
<path transform="matrix(1,0,0,-1,0,841.8898)" d="M348.2249 547.5719 343.0845 544.7443 342.9122 503.8911C344.6663 504.3107 346.4402 504.6137 348.2249 504.7634Z" fill-rule="evenodd"/>
<path transform="matrix(1,0,0,-1,0,841.8898)" d="M350.3871 547.5719 370.6688 539.3013V534.0467L350.3871 541.3105Z" fill-rule="evenodd"/>
<path transform="matrix(1,0,0,-1,0,841.8898)" d="M350.3871 537.9517 370.3552 530.6947V527.0394L350.3871 534.0467Z" fill-rule="evenodd"/>
<path transform="matrix(1,0,0,-1,0,841.8898)" d="M350.3871 530.5791 370.3552 523.7544V519.7731L350.3871 526.1003Z" fill-rule="evenodd"/>
<path transform="matrix(1,0,0,-1,0,841.8898)" d="M350.3871 522.9473V517.9706L370.6688 512.2973V516.8475Z" fill-rule="evenodd"/>
<path transform="matrix(1,0,0,-1,0,841.8898)" d="M350.3871 515.5189V510.5424L370.6688 504.8691V509.4193Z" fill-rule="evenodd"/>
<path transform="matrix(1,0,0,-1,0,841.8898)" d="M350.3871 508.2055V504.8674C351.4238 504.8787 352.4627 504.834 353.5024 504.7251 359.7378 504.0737 365.3073 501.2121 370.3694 497.6393L370.6688 497.5554V502.1056Z" fill-rule="evenodd"/>
<path transform="matrix(1,0,0,-1,0,841.8898)" d="M261.4113 597.5473 257.9661 599.3135V586.7626L284.3708 572.2237V585.7688L268.1836 595.2767 264.1946 626.7084Z" fill-rule="evenodd"/>
<path transform="matrix(1,0,0,-1,0,841.8898)" d="M254.723 587.3596 245.3083 583.458 245.2839 520.5285 247.3693 519.3907 247.4921 493.8265 254.723 491.9338Z" fill-rule="evenodd"/>
<path transform="matrix(1,0,0,-1,0,841.8898)" d="M257.5715 584.1901V577.4494L284.3708 563.1931V569.1016Z" fill-rule="evenodd"/>
<path transform="matrix(1,0,0,-1,0,841.8898)" d="M257.5715 573.9871V567.2463L284.3708 553.5788V559.4871Z" fill-rule="evenodd"/>
<path transform="matrix(1,0,0,-1,0,841.8898)" d="M257.5715 563.783V557.0422L284.3708 544.1406V550.0488Z" fill-rule="evenodd"/>
<path transform="matrix(1,0,0,-1,0,841.8898)" d="M257.5715 553.9618V547.221L284.3708 533.9353V539.8435Z" fill-rule="evenodd"/>
<path transform="matrix(1,0,0,-1,0,841.8898)" d="M257.5715 543.2763V536.5355L284.3708 523.2498V529.158Z" fill-rule="evenodd"/>
<path transform="matrix(1,0,0,-1,0,841.8898)" d="M257.5715 533.0242V526.2837L284.3708 512.9977V518.9063Z" fill-rule="evenodd"/>
<path transform="matrix(1,0,0,-1,0,841.8898)" d="M257.5715 522.2265V515.486L284.3708 502.2V508.1085Z" fill-rule="evenodd"/>
<path transform="matrix(1,0,0,-1,0,841.8898)" d="M257.5715 511.6346V504.894L284.3708 491.6081V497.5166Z" fill-rule="evenodd"/>
<path transform="matrix(1,0,0,-1,0,841.8898)" d="M257.5715 499.7268V492.9863L284.3708 479.7003V485.6088Z" fill-rule="evenodd"/>
<path transform="matrix(1,0,0,-1,0,841.8898)" d="M375.1183 560.4449 361.6174 553.716V543.678L375.5248 550.0587H376.1756L376.5212 550.4066 385.5716 549.8637V549.159H386.4637V554.5171Z" fill-rule="evenodd"/>
<path transform="matrix(1,0,0,-1,0,841.8898)" d="M376.6422 549.2302H383.8912L383.2997 490.5397C382.6431 490.5553 382.0175 490.2083 381.6833 489.5989 381.5501 489.3557 381.4767 489.0954 381.4597 488.8355 380.0823 489.9529 378.7084 491.074 377.3361 492.1954Z" fill-rule="evenodd"/>
<path transform="matrix(1,0,0,-1,0,841.8898)" d="M385.2805 548.3696 391.8586 548.0201 391.8824 488.2825C389.7675 488.6807 387.6735 489.2074 385.5997 489.8591Z" fill-rule="evenodd"/>
<path transform="matrix(1,0,0,-1,0,841.8898)" d="M375.1551 548.3696 364.6514 542.9789V542.2317L371.9721 539.7772 373.4453 495.3455C374.0255 494.8911 374.5993 494.4314 375.1665 493.9682L375.8318 493.4248Z" fill-rule="evenodd"/>
<path transform="matrix(1,0,0,-1,0,841.8898)" d="M393.2722 545.8292H395.2877L394.647 489.4291H393.1398Z" fill-rule="evenodd"/>
<path transform="matrix(1,0,0,-1,0,841.8898)" d="M234.4833 520.4869V516.784L245.0616 515.5869V519.4491Z" fill-rule="evenodd"/>
<path transform="matrix(1,0,0,-1,0,841.8898)" d="M234.4833 514.3791V510.6764L245.0616 509.4791V513.3416Z" fill-rule="evenodd"/>
<path transform="matrix(1,0,0,-1,0,841.8898)" d="M234.4833 509.1083V505.4057L245.0616 504.2083V508.0706Z" fill-rule="evenodd"/>
<path transform="matrix(1,0,0,-1,0,841.8898)" d="M234.4833 503.229V499.5264L245.0616 498.329V502.1915Z" fill-rule="evenodd"/>
<path transform="matrix(1,0,0,-1,0,841.8898)" d="M234.4833 497.0991V495.4711C236.5605 494.9461 238.5539 494.0745 240.0885 492.762L245.0616 492.1991V496.0616Z" fill-rule="evenodd"/>
<path transform="matrix(1,0,0,-1,0,841.8898)" d="M224.7395 573.6915 232.7034 567.1735 232.7343 521.5076 231.6552 520.422 231.3765 496.0089C230.2841 496.1171 229.2208 496.1421 228.2414 496.097 227.0917 496.0443 225.9612 495.9094 224.8546 495.6976Z" fill-rule="evenodd"/>
<path transform="matrix(1,0,0,-1,0,841.8898)" d="M221.1398 571.6593 199.2291 558.2018V551.1645L221.1398 563.0026Z" fill-rule="evenodd"/>
<path transform="matrix(1,0,0,-1,0,841.8898)" d="M199.2291 547.4245 221.1398 558.8331V553.3118L199.2291 542.3771Z" fill-rule="evenodd"/>
<path transform="matrix(1,0,0,-1,0,841.8898)" d="M221.1398 549.2866V544.3911L199.2291 533.753V538.7426Z" fill-rule="evenodd"/>
<path transform="matrix(1,0,0,-1,0,841.8898)" d="M221.1398 539.6465V534.4316L199.2291 524.5795V529.7763Z" fill-rule="evenodd"/>
<path transform="matrix(1,0,0,-1,0,841.8898)" d="M221.1398 530.6539V525.439L199.2291 515.5869V520.7837Z" fill-rule="evenodd"/>
<path transform="matrix(1,0,0,-1,0,841.8898)" d="M221.1398 520.4869V515.2717L199.2291 506.2382V510.6163Z" fill-rule="evenodd"/>
<path transform="matrix(1,0,0,-1,0,841.8898)" d="M221.1398 510.4069V505.1917L199.2291 497.084V501.4621Z" fill-rule="evenodd"/>
<path transform="matrix(1,0,0,-1,0,841.8898)" d="M221.1398 500.9185V495.7033L199.2291 487.5956V491.9737Z" fill-rule="evenodd"/>
<path transform="matrix(1,0,0,-1,0,841.8898)" d="M170.0152 514.1151V487.5389C166.3656 489.1501 162.2648 490.5643 158.2801 490.5754V511.1371C161.5748 513.3787 165.5722 514.1982 170.0152 514.1151" fill-rule="evenodd"/>
<path transform="matrix(1,0,0,-1,0,841.8898)" d="M173.3703 523.1203 173.2776 487.1307C181.1336 483.1858 178.0943 482.6452 187.6518 482.6452H193.0397C194.8272 483.4392 195.9449 484.6663 195.9449 486.2857V522.521Z" fill-rule="evenodd"/>
<path transform="matrix(1,0,0,-1,0,841.8898)" d="M177.8851 513.0258H182.4001V515.804H177.8851Z" fill-rule="evenodd"/>
<path transform="matrix(1,0,0,-1,0,841.8898)" d="M187.3871 513.0258H191.9021V515.804H187.3871Z" fill-rule="evenodd"/>
<path transform="matrix(1,0,0,-1,0,841.8898)" d="M177.8851 505.5412H182.4001V508.3197H177.8851Z" fill-rule="evenodd"/>
<path transform="matrix(1,0,0,-1,0,841.8898)" d="M187.3871 505.5412H191.9021V508.3197H187.3871Z" fill-rule="evenodd"/>
<path transform="matrix(1,0,0,-1,0,841.8898)" d="M177.8851 498.0566H182.4001V500.8351H177.8851Z" fill-rule="evenodd"/>
<path transform="matrix(1,0,0,-1,0,841.8898)" d="M187.3871 498.0566H191.9021V500.8351H187.3871Z" fill-rule="evenodd"/>
<path transform="matrix(1,0,0,-1,0,841.8898)" d="M177.8851 491.2186H182.4001V493.9968H177.8851Z" fill-rule="evenodd"/>
<path transform="matrix(1,0,0,-1,0,841.8898)" d="M187.3871 491.2186H191.9021V493.9968H187.3871Z" fill-rule="evenodd"/>
<path transform="matrix(1,0,0,-1,0,841.8898)" d="M177.8851 484.8171H182.4001V487.5956H177.8851Z" fill-rule="evenodd"/>
<path transform="matrix(1,0,0,-1,0,841.8898)" d="M187.3871 484.8171H191.9021V487.5956H187.3871Z" fill-rule="evenodd"/>
<path transform="matrix(1,0,0,-1,0,841.8898)" d="M297.436 449.2647C244.5148 449.6335 192.0804 443.4608 139.7843 441.3419 192.3976 440.4747 245.1543 444.2454 297.436 443.3233 349.7173 444.2454 402.474 440.4747 455.0873 441.3419 402.7912 443.4608 350.3568 449.6335 297.436 449.2647" fill-rule="evenodd"/>
<path transform="matrix(1,0,0,-1,0,841.8898)" d="M154.0457 438.607 143.5586 436.1479 126.733 365.8076C125.735 361.6356 123.3499 354.7281 119.1118 352.8791V351.7787L137.4863 354.8789V355.6911C134.5853 356.7719 132.7657 360.3146 133.2731 363.2947L136.0406 379.5508 155.6697 381.7936 159.1478 365.2084C159.7337 362.414 156.8801 359.6842 154.9854 358.0699L155.05 357.1217 176.0074 359.3648V360.1687C174.0039 361.0868 172.1092 364.6182 171.5961 366.7195ZM146.7317 419.923H145.6537L138.0954 387.0998 153.9811 388.5222ZM173.9066 428.3028V427.3756C176.97 426.5453 178.8483 424.4049 178.8786 421.2014L179.4002 366.4769C179.4223 364.142 178.4418 361.5256 176.4102 360.2375V359.2794L194.2946 360.0247V360.7217C190.673 361.9185 189.4533 364.3886 189.3903 368.0223L188.9683 392.3878H197.5303C199.8524 392.3878 202.3163 389.5614 202.4844 387.2134H203.3646L203.1199 403.2312H202.6911C202.2265 401.2481 199.4939 398.7958 197.5473 398.7833L189.1545 398.7298 188.6357 421.6847 198.8521 421.7533C200.8188 421.7658 204.4091 416.7045 204.87 414.8473H205.4869L205.1402 428.8944ZM206.6992 428.5939V427.9207C209.2833 426.602 210.9172 424.4848 210.9475 421.5362L211.5062 367.5339C211.5326 365.004 209.4571 362.8672 207.246 361.9468V360.9544L226.3201 361.6075V362.3669C223.558 363.189 221.2988 365.8096 221.2693 368.7911L221.0323 393.008H222.8026L236.8026 361.6075 250.7769 362.0843V362.6507C248.258 364.2248 246.7925 366.41 245.5458 369.0397L234.0746 393.2354V394.0529C241.9951 397.4939 243.9859 404.873 243.6202 412.5951 243.163 422.2542 236.4945 428.5939 226.8884 428.5939ZM220.8189 422.672 221.023 396.1962H225.055C229.5632 396.1962 231.9919 403.0291 232.2618 407.6345 232.5818 413.0906 230.4683 422.672 224.4509 422.672ZM268.9875 430.2652C282.4211 430.2652 291.8203 417.4744 291.8203 395.9144 291.8203 374.3541 283.2823 360.2191 270.3555 360.2472 257.4286 360.2752 245.9906 377.5258 246.8262 397.4939 247.6616 417.462 255.5538 430.2652 268.9875 430.2652ZM268.9875 424.0743C258.2708 424.0743 259.0237 404.0008 258.7671 396.7328 258.4497 387.7356 259.2822 365.6194 270.3702 365.5953 281.8576 365.5706 280.0553 388.7257 280.0392 396.2276 280.0171 406.4202 278.8852 424.0743 268.9875 424.0743ZM322.13 425.8145C322.0339 421.1283 321.9381 416.442 321.842 411.7558 321.7059 411.7558 321.5699 411.7558 321.4338 411.7558 313.1819 435.6232 292.002 417.6244 311.5338 403.9407 320.3748 397.747 325.0244 393.2269 325.6835 381.941 326.7561 363.5821 312.8933 353.7349 296.121 364.3622 296.121 370.1024 296.121 375.8426 296.121 381.5827 296.555 381.5827 296.9892 381.5827 297.4232 381.5827 299.3391 372.6286 303.0814 366.4783 309.1703 366.3 314.142 366.1543 317.3023 371.1081 316.8737 376.3587 316.4533 381.5093 311.982 385.5135 308.2153 388.6676 301.6304 394.1821 294.3207 399.2689 294.6728 410.9508 295.1918 428.1687 307.3042 433.9667 322.13 425.8145ZM326.6447 428.0851C338.612 428.0851 350.5793 428.0851 362.5469 428.0851 362.5469 427.9745 362.5469 427.8637 362.5469 427.7531 361.5293 425.8905 360.5117 424.0281 359.4943 422.1658 362.287 414.2214 365.0797 406.2767 367.8724 398.3323H368.7602C370.9157 405.5675 373.0708 412.8026 375.226 420.0375 376.0449 422.7868 374.0488 425.7258 371.6841 427.0054 371.6841 427.2744 371.6841 427.5437 371.6841 427.8129 376.6354 427.7248 381.5867 427.6366 386.5382 427.5485 386.5382 427.2746 386.5382 427.0005 386.5382 426.7267 385.7139 426.6638 384.3791 425.1348 384.0259 424.4088 379.5199 412.806 375.7394 402.3677 371.2337 390.7653 371.251 382.5411 371.2686 374.3172 371.2861 366.0934 372.2488 363.1603 373.9093 361.6313 375.738 360.4405 375.738 360.0709 375.738 359.7009 375.738 359.3313 369.1559 359.5428 362.5739 359.7542 355.9918 359.9657 355.9918 360.5349 355.9918 361.1038 355.9918 361.6727 358.753 362.0305 360.1684 364.1287 360.9122 367.0954 360.7019 374.7552 360.4915 382.4152 360.2812 390.075 355.2511 402.4511 350.754 415.4372 345.1912 427.2038 344.8372 427.2038 344.4831 427.2038 344.1294 427.2038 342.9456 426.227 341.9666 424.5591 341.9637 422.9932L341.8662 368.2627C341.8608 365.089 343.4443 363.0872 346.1632 361.6075 346.1632 361.2694 346.1632 360.9312 346.1632 360.593 339.8411 360.9312 333.519 361.2694 327.1972 361.6075 327.1972 361.9363 327.1972 362.2649 327.1972 362.5937 330.7796 363.2258 332.0989 366.1342 332.0504 369.1157L331.1957 421.5991C331.1532 424.203 329.0953 426.4483 326.6447 427.045 326.6447 427.3917 326.6447 427.7384 326.6447 428.0851ZM405.3589 428.8944C421.465 428.9083 429.0188 413.9011 429.0188 393.7082 429.0188 373.5153 420.2878 356.4369 407.2765 356.4369 394.2649 356.4369 382.6392 372.1445 382.6392 392.544 382.6392 412.9438 389.2524 428.8808 405.3589 428.8944ZM405.038 423.8215C416.4182 423.8274 416.6725 401.5091 416.9724 394.1708 417.8378 372.9878 414.6951 362.1008 407.4185 361.6075 400.1423 361.114 394.6292 376.1793 394.6292 393.7082 394.6292 411.2371 395.5065 423.8164 405.038 423.8215ZM429.3357 427.966V426.9387C432.7617 425.592 434.7456 422.9915 434.7683 419.2639L435.0997 364.5697C435.1252 360.3121 433.8023 357.2694 429.3357 356.4369V355.1508L455.5247 351.7679C467.4039 350.2335 475.7607 358.8987 475.7598 370.5792 475.7587 384.2983 468.8816 390.0424 460.3595 393.008V393.6861C466.7856 396.6622 472.1119 399.9728 471.7517 412.1906 471.3914 424.4088 461.7493 429.0551 450.6007 428.8946ZM445.7024 389.6685 445.7279 360.0425 454.2182 359.4146C462.0192 358.8375 463.1236 369.0082 463.1244 374.5165 463.1255 380.6776 459.5278 388.9772 452.552 389.3261ZM445.3756 421.3089V395.731H452.4891C458.312 395.731 460.0154 404.2213 459.8884 408.7667 459.7248 414.6253 457.7873 421.3089 450.813 421.3089Z" fill-rule="evenodd"/>
<path transform="matrix(1,0,0,-1,0,841.8898)" d="M295.272 341.7114C241.0413 342.212 186.8102 342.4408 132.5795 342.2778 184.9192 345.3698 239.4641 347.1242 295.272 348.1123 351.0799 347.1242 405.6248 345.3698 457.9645 342.2778 403.7338 342.4408 349.5027 342.212 295.272 341.7114" fill-rule="evenodd"/>
<text xml:space="preserve" transform="matrix(.9969955 0 -0 1.0030136 0 841.8898)" font-size="35.24977" font-family="Perpetua-Bold" font-weight="bold"><tspan y="-304.6211" x="191.86083 219.49156 241.9754 262.63246 280.01707 309.88017 332.3643 360.38874 386.5858">RESIDENCE</tspan></text>
<path transform="matrix(1,0,0,-1,0,841.8898)" d="M422.8586 552.8971C422.0184 553.0944 421.4188 552.132 420.3366 552.3902L420.2425 554.5684C422.7129 556.6096 429.842 557.0558 436.4464 555.4454L436.4444 554.3226 435.174 554.112 435.1907 484.2298 435.1861 481.6684 422.7571 485.7653ZM425.1762 553.8696 423.9981 553.3886C423.9981 553.3886 423.4065 551.6422 423.9944 551.1538 424.5823 550.6656 424.4505 550.1469 424.4494 549.5063 424.4485 548.8654 423.7277 548.0719 423.7274 547.8891 423.7271 547.706 424.0689 547.5013 424.0689 547.5013 424.0689 547.5013 425.8695 549.5366 426.0314 549.7807 426.1935 550.025 425.3604 551.2759 425.3346 552.0084 425.3091 552.7406 425.1762 553.8696 425.1762 553.8696ZM427.2123 547.0651 427.3393 542.3661C427.3393 542.3661 424.3598 543.7695 424.6226 544.9598 424.8853 546.1498 425.3579 546.1191 425.7026 546.3632 426.047 546.6073 427.2123 547.0651 427.2123 547.0651ZM423.9935 542.914C423.9933 542.823 423.9867 538.8936 423.9867 538.8936 423.9867 538.8936 426.443 540.4867 426.2406 540.904 426.0382 541.3212 425.1555 542.1518 424.8788 542.3661 424.6024 542.5804 423.9935 542.914 423.9935 542.914ZM427.1386 538.2371 427.1312 533.7533C427.1312 533.7533 425.2158 535.2188 425.1127 535.6723 425.0092 536.1259 424.83 537.0333 425.3964 537.3473 425.9628 537.6614 427.1386 538.2371 427.1386 538.2371ZM423.8957 533.9129 423.8895 530.2137C423.8895 530.2137 425.6663 531.3129 425.3868 531.9062 425.1073 532.4995 424.878 533.0605 424.5868 533.4069 424.296 533.7533 423.8957 533.9129 423.8957 533.9129ZM427.5751 529.6107 427.5672 524.8108C427.5672 524.8108 425.4953 525.3182 424.9848 526.3798 424.4746 527.4414 424.563 528.2493 425.1008 528.6183 425.6385 528.9877 426.3729 529.6107 426.638 529.6107 426.9027 529.6107 427.5751 529.6107 427.5751 529.6107ZM423.8813 525.181 423.8759 521.9878C423.8759 521.9878 425.4007 522.2843 425.4015 522.6333 425.4021 522.9822 425.3675 523.9772 425.1214 524.2212 424.8754 524.4656 423.8813 525.181 423.8813 525.181ZM427.5626 521.9878 427.5544 517.1749C427.5544 517.1749 426.3063 516.7973 426.1997 517.5283 426.0934 518.2597 425.1257 518.8207 425.1472 519.5324 425.1688 520.2442 425.8899 521.2242 426.3562 521.606 426.8222 521.9878 427.189 521.9878 427.189 521.9878ZM424.3431 517.3963 424.338 514.2574C424.338 514.2574 425.8276 515.573 425.8077 515.9191 425.7882 516.2655 425.2397 517.1885 425.0769 517.3963 424.914 517.604 424.3431 517.3963 424.3431 517.3963ZM424.6679 510.8686C424.8666 510.643 426.6082 508.0552 426.8659 507.9756 427.1236 507.8959 427.2996 508.7188 427.5425 509.9927 427.7854 511.2666 427.5485 513.6287 427.5485 513.6287 427.5485 513.6287 426.4716 513.6554 425.8029 512.8858 425.1345 512.1159 424.6679 510.8686 424.6679 510.8686ZM424.0086 508.2891 424.002 504.4147C424.002 504.4147 425.2374 505.9854 425.4384 506.3519 425.6393 506.7184 425.0095 507.6513 424.6631 507.9702 424.3167 508.2891 424.0086 508.2891 424.0086 508.2891ZM427.6403 504.4147 427.6329 499.9995C427.6329 499.9995 425.8454 501.1075 425.469 501.6574 425.0925 502.2071 425.738 502.9838 426.1467 503.2979 426.5555 503.6119 427.6403 504.4147 427.6403 504.4147ZM424.4956 499.9995C424.4956 499.9995 426.4007 498.6346 426.1107 498.1666 425.8208 497.6983 425.022 496.8153 424.7561 496.8553 424.4905 496.8955 424.3666 497.016 424.3666 497.016ZM424.9281 493.7845C424.9278 493.5838 426.0124 491.938 426.4781 491.4964 426.9438 491.0547 427.6182 491.2554 427.6182 491.2554L427.6261 496.0726ZM424.3572 491.4561C424.3567 491.0148 424.3527 488.7867 424.3527 488.7867 424.3527 488.7867 425.7244 489.3086 425.9256 489.6096 426.1269 489.9107 425.342 490.458 425.2422 490.8339 425.1424 491.2101 424.3572 491.4561 424.3572 491.4561ZM427.8747 553.8696C427.8747 553.8696 427.7262 551.4426 428.0318 551.0639 428.3371 550.6855 429.7558 550.4839 430.8622 551.0639 431.9683 551.6442 433.0205 552.1935 433.1829 552.5904 433.3453 552.9875 432.5919 553.8696 432.5919 553.8696ZM432.3163 550.2093C431.9921 549.8427 431.6142 549.4459 431.9376 549.4153 432.2608 549.3849 432.4527 548.6216 432.8271 549.4153 433.2016 550.2093 433.4763 550.7005 433.4763 550.7005ZM429.1571 547.0651C429.1571 547.0651 428.9063 542.0548 429.1492 542.2105 429.3918 542.3661 431.7557 540.7072 432.195 542.2068 432.6344 543.7063 433.4641 543.5289 433.4655 544.3197 433.4669 545.1106 432.0632 546.7603 431.8101 547.0651 431.5567 547.3698 430.5141 547.9373 430.5135 547.5013 430.5127 547.0651 429.1571 547.0651 429.1571 547.0651ZM429.0347 538.2371C429.0347 538.2371 428.665 537.3493 429.3442 537.1104 430.0237 536.8714 429.8366 537.1104 430.6799 536.7917 431.5232 536.4731 432.2268 535.4702 432.6208 535.4643 433.0145 535.4586 433.0582 537.8029 433.0188 538.02 432.9797 538.2371 430.9648 538.8936 430.613 538.8936 430.2615 538.8936 429.0347 538.2371 429.0347 538.2371ZM429.5713 533.7533C429.7346 533.2419 430.1986 532.9868 430.9736 532.525 431.7486 532.0633 432.7353 533.3618 432.7829 533.7533 432.8303 534.1445 433.1829 533.3094 432.0799 533.9129 430.977 534.5164 429.8097 535.9952 429.8097 535.9952 429.8097 535.9952 429.8559 535.6312 429.808 535.0473 429.7601 534.4631 429.5713 533.7533 429.5713 533.7533ZM429.3085 528.9749C429.6849 528.5477 430.4282 528.0284 431.2128 527.9131 431.9972 527.7977 432.3214 526.5972 432.1174 526.4586 431.9133 526.32 430.6805 526.6664 430.1192 526.1817 429.558 525.6967 428.9556 525.0733 429.556 524.4732 430.1561 523.8729 432.8541 521.9875 432.8566 523.5843 432.8595 525.181 432.6826 526.2605 433.012 526.7356 433.3416 527.2106 432.7943 529.0078 432.4079 529.6107 432.0215 530.2137 431.1961 530.708 430.9702 530.5218 430.7443 530.3356 429.5656 530.3248 429.565 529.9679 429.5645 529.6107 429.3085 528.9749 429.3085 528.9749ZM429.5503 521.0918C429.5494 520.6343 429.2697 519.9304 429.548 519.7314 429.8264 519.5324 430.5969 519.0514 431.1969 519.7314 431.7968 520.4117 432.0309 520.1433 432.0295 519.3799 432.0283 518.6163 431.5085 518.523 430.7241 518.0057 429.9401 517.4887 429.0058 516.2893 429.5415 515.8732 430.0773 515.4568 431.2012 514.3683 432.023 515.3241 432.8444 516.28 433.3484 517.9859 433.0998 519.0446 432.851 520.1033 432.5482 521.0918 432.22 521.0918 431.8917 521.0918 431.1184 521.2715 430.7905 521.4042 430.4625 521.5368 429.9466 521.4042 429.9466 521.4042ZM429.7099 512.9002C429.7096 512.6613 428.1514 511.5461 429.7076 511.4665 431.2636 511.3868 431.9799 510.5106 432.0731 510.1656 432.1664 509.8204 430.541 508.7849 430.541 508.7849 430.541 508.7849 429.9352 507.5371 429.9582 507.2715 429.9814 507.0059 430.9889 506.6342 431.716 506.9529 432.4433 507.2715 433.2121 508.6355 433.1492 509.8652 433.0865 511.0948 432.6625 512.1717 432.6636 512.9002 432.665 513.629 432.0731 513.629 431.2672 513.629 430.4614 513.629 429.7099 512.9002 429.7099 512.9002ZM430.041 503.2315C430.041 503.2315 429.7586 502.2071 430.4146 502.2071 431.0702 502.2071 431.8206 501.8774 431.8671 501.6385 431.9135 501.3995 430.753 500.656 430.365 500.656 429.9769 500.656 429.3238 498.2227 430.2822 497.9571 431.2406 497.6918 432.5936 498.3576 432.8631 499.1786 433.1327 499.9995 433.3635 504.0218 432.8719 504.4147 432.3801 504.8076 430.782 505.0278 430.7014 504.7211 430.6212 504.4147 430.3624 503.9314 430.3624 503.9314ZM429.7728 491.8986C429.7714 490.9504 430.6436 488.7867 431.0478 488.7867 431.4523 488.7867 433.0089 489.9002 432.3892 490.1216 431.7695 490.3427 430.9506 491.3016 431.0532 491.8986 431.1556 492.4956 431.9504 492.3408 432.5363 491.8986 433.1222 491.4561 433.1597 490.9397 433.1429 492.2904 433.1259 493.6414 432.7384 495.0238 432.7384 495.0238 432.7384 495.0238 431.4223 493.6414 431.0561 493.6414 430.6898 493.6414 430.255 493.268 430.1926 493.0223 430.1303 492.7765 429.7728 491.8986 429.7728 491.8986ZM414.294 569.2161 414.2744 557.6255C415.618 558.1522 416.8868 558.3631 418.055 558.1505L418.3943 569.4942ZM419.2226 569.4942C419.2157 565.4472 419.2089 561.4002 419.2024 557.3531 421.0699 557.5037 442.7014 559.1724 436.841 554.4383 440.1853 555.0163 440.7491 555.1322 440.7554 558.7228 435.5569 559.1324 429.7385 559.5423 424.5401 559.9519 424.315 561.3216 424.493 562.6913 424.2679 564.061 423.5754 564.061 422.8829 564.061 422.1904 564.061 422.136 562.4688 422.0816 560.8769 422.0271 559.2847 421.7584 559.2847 421.4897 559.2847 421.221 559.2847 421.2371 562.6879 421.253 566.0909 421.2692 569.4942 420.5869 569.4942 419.9049 569.4942 419.2226 569.4942ZM426.2981 576.4416 426.274 561.8852 435.3188 561.073 435.3426 575.2386ZM436.9825 566.2117 436.9723 560.2294H441.2169L441.2259 565.7309ZM463.0686 566.2117 469.6294 565.6153 469.6106 554.4677C469.6106 554.4677 460.1676 553.8064 459.0448 553.5975 457.922 553.3886 457.59 554.4383 457.59 554.4383L457.6045 563.1265H459.4652L459.3977 555.0636H460.3147L460.3833 563.8901H461.2192L461.2042 554.8802H461.5549L463.1729 554.9108 463.1885 564.3482 462.7715 564.8216 462.7738 566.2117ZM387.4385 588.9186 374.4439 585.3461 360.9094 587.1325 346.0901 581.0967C346.0901 581.0967 345.0283 579.873 346.0876 579.4381 347.1466 579.003 413.2749 569.4942 413.2749 569.4942L414.2957 570.2953 423.8203 569.9441 421.7105 569.4942 421.7091 568.5392H424.9655L424.6384 577.0043 426.2995 577.2149 426.299 576.934 432.9238 577.0692 430.8585 598.6106 458.4039 572.7039 436.0586 575.2386 436.4683 568.5392 436.9844 567.4816H442.5554C442.5554 567.4816 443.0415 566.2117 443.6382 566.2117 444.2349 566.2117 456.6529 563.5599 456.6529 563.5599L460.2351 564.717 461.6841 564.6382 461.6691 555.5616H462.6414L462.6561 564.2504 462.5135 564.7516 462.5212 566.4005 463.0178 566.6284 463.0226 569.4942 429.2966 602.4243H425.8718ZM425.6977 600.3981 422.9107 577.7946 382.6746 583.8874ZM386.2604 587.6586 378.256 584.5765H381.2117ZM356.3606 582.7311 355.7993 581.0794 353.442 581.5363 353.4429 582.1336ZM360.8005 584.5765 358.1291 582.7311 358.1263 581.0794H359.5535C359.5535 581.0794 360.3308 581.9051 360.7963 581.9051 361.2614 581.9051 362.0387 582.7311 362.2567 583.1878 362.4744 583.6448 362.2589 584.5765 362.2589 584.5765ZM362.7507 581.9051C362.5571 582.1248 361.9735 580.9037 362.9971 580.6928 364.0207 580.4821 364.3622 580.6928 364.3622 580.6928 364.3622 580.6928 364.3024 582.0985 364.1168 582.4148 363.9314 582.7311 362.7507 581.9051 362.7507 581.9051ZM364.9878 583.6799 366.8465 581.9051C366.8465 581.9051 366.8494 583.6966 366.8502 584.1366 366.8511 584.5765 365.9202 584.5765 365.9202 584.5765ZM368.8957 582.8281C368.8957 582.8281 367.3735 581.5596 367.6827 581.0794 367.9923 580.5992 370.2563 579.9549 370.2563 579.9549L370.2603 582.4871ZM371.4681 582.4871C371.4676 582.1637 372.0365 580.8464 372.2202 580.8464 372.4038 580.8464 372.7304 580.8776 372.8741 581.3915 373.0175 581.9051 372.8772 583.2408 372.8772 583.2408H371.4695ZM374.4848 580.8464C374.4845 580.6616 372.7678 579.5527 372.4832 579.5062 372.1986 579.46 374.9919 578.9928 375.114 578.9928 375.2365 578.9928 375.6263 580.2228 375.9324 580.2919 376.2386 580.3614 376.8914 580.3432 376.8698 579.668 376.8483 578.9928 378.1327 578.4897 378.5409 578.4897 378.9488 578.4897 380.3357 578.3179 380.0514 578.9928 379.7668 579.668 377.4648 581.6004 377.0167 582.0437 376.5685 582.4871 376.0376 582.1821 375.7927 582.0437 375.5475 581.9051 374.4848 580.8464 374.4848 580.8464ZM379.4185 581.6699C379.5707 581.4972 380.6816 579.3316 380.6816 579.3316L382.6689 580.5006 383.2906 582.0437C383.2906 582.0437 379.5007 581.5463 379.4185 581.6699ZM385.3766 580.8464C385.376 580.5272 386.7803 578.4701 386.7803 578.4701L389.1302 580.6877ZM384.8808 578.9928C385.0217 578.9928 385.9809 577.4448 385.3706 577.3119 384.7603 577.1792 383.0468 576.5944 383.0482 577.4182 383.0496 578.2419 384.0134 579.3316 384.0134 579.3316ZM391.7982 580.3727 388.531 576.9867 389.1231 576.4277 391.7925 576.9867C391.7925 576.9867 392.8986 579.0047 392.9224 579.3316 392.9465 579.6584 392.9244 580.3727 392.9244 580.3727ZM394.1904 579.7494C394.4477 579.4571 394.5875 578.7811 394.7278 578.4701 394.8681 578.1591 394.3502 577.2266 394.1855 576.9867 394.0211 576.7466 396.0377 576.1355 396.2024 576.4277 396.3671 576.72 398.342 578.9928 398.342 578.9928L398.3426 579.3316ZM400.2063 578.05C400.4444 577.7796 401.4264 575.5405 401.4264 575.5405H398.6232ZM401.6265 578.4001C401.9803 577.7946 402.8474 576.4277 402.8474 576.4277L404.3254 578.05ZM406.1506 578.05 406.1452 574.6986H406.9466L409.2242 577.7946ZM410.3785 577.4139 408.3083 574.3117H410.7351L410.7402 577.4139ZM412.3919 576.6755 412.8775 574.1515 414.0082 573.4114 415.4006 576.5315 415.4017 577.0911ZM417.8018 576.0845C417.8018 576.0845 416.3596 575.2514 416.1161 575.2514 415.8726 575.2514 415.6583 574.5217 415.6583 574.5217L415.6563 573.4114 417.797 573.116C417.797 573.116 417.1615 575.447 417.8007 575.3492 418.4396 575.2514 419.2379 575.2514 419.2379 575.2514L419.2398 576.4416ZM419.9984 576.1108C419.9984 576.1108 420.071 572.7438 419.9922 572.5046 419.9134 572.2654 421.8143 572.0261 422.1193 572.0261 422.4246 572.0261 423.0587 572.3186 423.2934 572.3186 423.5281 572.3186 423.9556 575.2514 423.9556 575.2514L422.4543 575.8628C422.4543 575.8628 422.3665 574.0685 422.1697 574.0685 421.973 574.0685 421.3471 573.3584 421.2074 574.0685 421.0679 574.7788 420.7646 575.8628 420.7646 575.8628ZM356.8623 578.4701C358.0977 578.4701 359.7778 577.7946 360.2324 577.7946L356.8632 578.9928ZM363.1175 577.7946C363.3494 577.5313 365.743 577.067 366.5772 576.9666 367.4112 576.866 367.6357 577.7946 367.6357 577.7946 367.6357 577.7946 366.0381 577.7946 365.3765 577.7946 364.7149 577.7946 363.1175 577.7946 363.1175 577.7946ZM370.2506 576.578C370.3595 576.4544 372.6913 576.1157 372.9288 576.176 373.1664 576.2364 374.1959 576.959 373.3274 576.959 372.4586 576.959 370.9845 576.959 370.878 576.959 370.7714 576.959 370.2506 576.578 370.2506 576.578ZM374.3861 575.7922C374.6948 575.7922 376.0532 575.8971 376.4546 575.8971 376.8559 575.8971 376.1164 576.7413 375.4216 576.5638 374.7268 576.3864 374.3861 575.7922 374.3861 575.7922ZM378.04 575.4504C378.3949 575.4504 380.1691 574.9877 380.418 575.229 380.6671 575.4705 381.3216 575.7922 380.7031 575.7922 380.0843 575.7922 378.9048 575.7922 378.5729 575.7922 378.2412 575.7922 378.04 575.4504 378.04 575.4504ZM381.7658 574.5254C383.3101 574.5254 383.5585 574.4049 383.6296 574.5254 383.701 574.6462 383.3898 575.1595 383.0443 575.1595 382.6987 575.1595 382.1754 575.2706 382.051 575.1595 381.9266 575.0481 381.7658 574.5254 381.7658 574.5254ZM387.6103 574.1626C387.9859 574.1626 390.7239 573.3119 390.7239 573.3119 390.7239 573.3119 390.725 573.8536 390.7253 574.1626 390.7259 574.4718 389.81 574.4718 389.1685 574.4718 388.527 574.4718 387.6103 574.1626 387.6103 574.1626ZM394.8491 573.2396C394.8491 573.2396 394.8868 572.5298 395.1011 572.5519 395.3154 572.574 396.0351 572.2075 396.25 572.5514 396.4646 572.8955 394.8491 573.2396 394.8491 573.2396ZM398.8627 572.8215C398.9798 572.6886 402.1716 572.0774 402.1716 572.0774L402.5716 572.5293C402.5716 572.5293 402.2127 572.8215 401.1165 572.8215 400.0204 572.8215 398.8627 572.8215 398.8627 572.8215ZM406.1407 572.0261C406.1407 572.0261 409.0793 571.398 409.5164 571.2758 409.9538 571.1533 412.3828 571.2758 412.3828 571.2758L411.222 570.6947 407.0384 571.3605ZM427.4776 598.9751 427.4357 597.1822C427.4357 597.1822 428.0451 596.5974 428.3274 596.8896 428.6095 597.1822 428.7285 598.2077 428.6823 598.5916 428.6361 598.9751 427.4776 598.9751 427.4776 598.9751ZM427.4314 594.6296C427.4306 594.1244 427.1 593.0872 427.4283 592.8216 427.7565 592.5557 429.0001 592.077 429.0477 592.4492 429.0953 592.8216 429.0525 595.2943 429.0525 595.2943H428.1134ZM427.2772 589.684 427.4172 586.1741H430.3755C430.3755 586.1741 429.9585 589.6307 429.9123 590.0031 429.8658 590.3753 429.4522 590.6679 429.0656 590.5879 428.6789 590.5083 427.2772 589.684 427.2772 589.684ZM427.2676 584.0093 427.4062 579.5436 430.3636 578.9928C430.3636 578.9928 431.6009 579.6839 430.3658 580.4226 429.1308 581.161 427.3461 581.0329 428.8578 581.7651 430.3692 582.4973 430.8324 583.0951 430.8333 583.5523 430.8341 584.0093 430.0279 584.0093 429.0945 584.0093 428.161 584.0093 427.2676 584.0093 427.2676 584.0093ZM425.6691 583.1654C425.6677 582.3918 425.0897 578.4001 425.0897 578.4001L424.0409 579.003C424.0409 579.003 424.3192 581.8995 424.4134 582.3567 424.5072 582.8139 424.8598 584.0093 424.8598 584.0093ZM438.7456 572.5641C438.7456 572.5641 438.3717 570.0319 438.7414 569.9616 439.1107 569.8913 439.937 569.575 440.3565 570.4189 440.7761 571.2627 441.6333 572.5641 441.6333 572.5641ZM442.2869 571.2046 442.1854 571.0402 441.2324 569.4942 443.0809 569.8454C443.0809 569.8454 443.3893 571.2046 443.5118 571.2046 443.6345 571.2046 443.9384 569.8896 443.9786 569.4942 444.0189 569.0985 445.8767 569.1447 446.04 569.1909 446.2036 569.2371 446.3504 571.6188 446.3504 571.6188 446.3504 571.6188 445.7582 571.6188 444.3905 571.6188 443.0225 571.6188 442.8184 571.6188 442.696 571.6188 442.5735 571.6188 442.2869 571.2046 442.2869 571.2046ZM448.8517 570.39C448.8517 570.39 446.4774 568.6722 447.7683 568.4326 449.0592 568.1934 450.4442 568.0205 450.4924 568.7572 450.5406 569.4942 450.8719 571.2046 450.4963 571.2046 450.1208 571.2046 448.8517 570.39 448.8517 570.39ZM452.7255 570.39C452.5067 570.1425 451.6418 568.2266 451.6418 568.2266 451.6418 568.2266 452.4177 568.7572 452.723 568.7572 453.028 568.7572 453.0983 568.6588 453.6142 568.2266 454.1301 567.7946 454.8342 567.6959 455.3048 568.2266 455.775 568.7572 455.8717 570.39 455.8717 570.39 455.8717 570.39 455.2217 569.2697 454.8178 569.1986 454.4141 569.1274 453.7568 569.3006 453.7576 569.8454 453.7587 570.39 453.7361 570.996 453.3599 570.693 452.9837 570.39 452.7255 570.39 452.7255 570.39ZM457.6147 569.1611C457.2768 568.2266 457.6119 567.5287 457.6119 567.5287 457.6119 567.5287 458.1238 569.1611 458.382 569.1611 458.6403 569.1611 459.0865 569.1609 459.2962 568.3448 459.5063 567.5287 460.2798 566.784 460.3978 567.1562 460.516 567.5287 460.4494 569.8454 460.1205 569.8454 459.7917 569.8454 458.9612 569.975 458.9609 569.8454 458.9606 569.7156 458.8523 569.6512 458.6173 569.4942 458.3823 569.3369 457.6147 569.1611 457.6147 569.1611ZM451.6384 566.2117C452.6776 566.2117 455.8623 564.7133 455.8623 564.7133 455.8623 564.7133 457.3199 565.0495 456.9426 565.4625 456.5653 565.8755 454.8934 566.2117 454.3226 566.2117 453.7517 566.2117 451.6384 566.2117 451.6384 566.2117ZM446.8181 566.2117C447.3312 566.2117 449.4365 565.6918 449.922 565.4625 450.4076 565.2332 452.1634 565.4625 451.2728 565.8372 450.3824 566.2117 448.2777 567.0578 448.2777 567.0578Z" fill-rule="evenodd"/>
<path transform="matrix(1,0,0,-1,0,841.8898)" d="M396.9527 544.1746 396.9799 487.2747H403.9387L404.6298 543.4869Z" fill-rule="evenodd"/>
<path transform="matrix(1,0,0,-1,0,841.8898)" d="M406.5625 543.4869 406.2949 487.2747H415.3484L415.6971 542.3794Z" fill-rule="evenodd"/>
<text fill="#1a1a18" xml:space="preserve" transform="matrix(.99699547 0 -0 1.0030135 0 841.8898)" font-size="25.91291" font-family="AvantGardeCTT-Bold" font-weight="bold"><tspan y="-266.36579" x="228.78652 242.9239 249.80606 266.0173 283.26463 299.84889 306.54966 321.72373 336.8975 352.07188">Since 2010</tspan></text>
</g>
</svg>
